<svg width="41" height="41" viewBox="0 0 41 41" fill="none" xmlns="http://www.w3.org/2000/svg">
<path d="M12.25 30.3333C10.3708 30.3333 8.85042 31.8708 8.85042 33.75C8.85042 35.6292 10.3708 37.1667 12.25 37.1667C14.1292 37.1667 15.6667 35.6292 15.6667 33.75C15.6667 31.8708 14.1292 30.3333 12.25 30.3333ZM2 3V6.41667H5.41667L11.5667 19.3829L9.26042 23.5683C8.98708 24.0467 8.83333 24.6104 8.83333 25.2083C8.83333 27.0875 10.3708 28.625 12.25 28.625H32.75V25.2083H12.9675C12.7283 25.2083 12.5404 25.0204 12.5404 24.7813L12.5917 24.5763L14.1292 21.7917H26.8562C28.1375 21.7917 29.265 21.0913 29.8458 20.0321L35.9617 8.945C36.0983 8.70583 36.1667 8.41542 36.1667 8.125C36.1667 7.18542 35.3979 6.41667 34.4583 6.41667H9.19208L7.58625 3H2ZM29.3333 30.3333C27.4542 30.3333 25.9338 31.8708 25.9338 33.75C25.9338 35.6292 27.4542 37.1667 29.3333 37.1667C31.2125 37.1667 32.75 35.6292 32.75 33.75C32.75 31.8708 31.2125 30.3333 29.3333 30.3333Z" fill="#898989"/>
<path d="M21 19V9" stroke="#FCD237" stroke-width="3" stroke-miterlimit="10"/>
<path d="M16 14H26" stroke="#FCD237" stroke-width="3" stroke-miterlimit="10"/>
</svg>
