<svg width="82" height="67" viewBox="0 0 82 67" fill="none" xmlns="http://www.w3.org/2000/svg">
<path d="M81.3384 38.6925C80.811 33.4026 79.6296 28.1976 77.8212 23.1957C80.8307 20.6543 84.0831 16.3187 78.9985 9.77869C74.3187 3.70737 68.9251 5.70673 65.8567 8.14551C60.4484 4.77662 53.1859 2.71135 43.4141 2.44037C38.5417 2.27568 33.6738 2.8813 28.992 4.23467C26.9611 1.21732 23.0539 -1.46315 16.9245 0.909723C10.1034 3.52427 11.0379 10.2547 12.6273 13.7994C6.35097 20.0377 2.25248 28.1166 0.935079 36.847C-1.9567 55.3539 -0.301103 65.856 38.0868 66.9106C82.7071 68.1117 83.5459 57.1262 81.3384 38.6925Z" fill="#FFB0CE"/>
<path d="M55.5258 28.1321C55.099 23.4816 51.9423 18.6114 45.9601 18.4795C39.9779 18.3477 36.0559 23.4962 35.894 28.1614C35.8057 31.1422 39.8307 32.746 45.7835 32.9072C51.7363 33.0683 55.7907 31.0982 55.5258 28.1321Z" fill="#272525"/>
<path d="M64.3728 21.3756C65.7809 19.8785 65.3038 17.1568 63.3071 15.2965C61.3105 13.4362 58.5504 13.1418 57.1424 14.6389C55.7343 16.136 56.2115 18.8577 58.2081 20.718C60.2047 22.5783 62.9648 22.8727 64.3728 21.3756Z" fill="#272525"/>
<path d="M33.6867 19.0979C35.7834 17.35 36.4105 14.6586 35.0875 13.0865C33.7645 11.5144 30.9924 11.657 28.8957 13.4049C26.7991 15.1529 26.1719 17.8442 27.4949 19.4163C28.8179 20.9884 31.5901 20.8458 33.6867 19.0979Z" fill="#272525"/>
</svg>
