<svg width="34" height="34" viewBox="0 0 34 34" fill="none" xmlns="http://www.w3.org/2000/svg">
<path d="M10.2 27.2C8.33 27.2 6.817 28.73 6.817 30.6C6.817 32.47 8.33 34 10.2 34C12.07 34 13.6 32.47 13.6 30.6C13.6 28.73 12.07 27.2 10.2 27.2ZM0 0V3.4H3.4L9.52 16.303L7.225 20.468C6.953 20.944 6.8 21.505 6.8 22.1C6.8 23.97 8.33 25.5 10.2 25.5H30.6V22.1H10.914C10.676 22.1 10.489 21.913 10.489 21.675L10.54 21.471L12.07 18.7H24.735C26.01 18.7 27.132 18.003 27.71 16.949L33.796 5.916C33.932 5.678 34 5.389 34 5.1C34 4.165 33.235 3.4 32.3 3.4H7.157L5.559 0H0ZM27.2 27.2C25.33 27.2 23.817 28.73 23.817 30.6C23.817 32.47 25.33 34 27.2 34C29.07 34 30.6 32.47 30.6 30.6C30.6 28.73 29.07 27.2 27.2 27.2Z" fill="black"/>
</svg>
