<svg width="134" height="135" viewBox="0 0 134 135" fill="none" xmlns="http://www.w3.org/2000/svg">
<path d="M7.62325 135C3.08884 135 0 131.795 0 127.213C0 122.631 3.08884 119.413 7.62325 119.413C12.1577 119.413 15.2465 122.625 15.2465 127.213C15.2465 131.801 12.2442 135 7.62325 135ZM5.04098 127.213C5.04098 128.868 5.65875 130.757 7.62325 130.757C9.58775 130.757 10.2055 128.868 10.2055 127.213C10.2055 125.558 9.58775 123.674 7.62325 123.674C5.65875 123.674 5.04098 125.552 5.04098 127.213Z" fill="#181716"/>
<path d="M17.3716 121.655C17.3716 120.093 18.4836 119.401 19.8056 119.401C21.1277 119.401 21.6589 120.426 21.9061 121.143C23.018 120.093 24.1238 119.401 25.6868 119.401C27.292 119.413 28.8296 120.048 29.9741 121.173C31.1562 120.025 32.743 119.389 34.3911 119.401C36.7881 119.401 39.5186 120.723 39.5186 124.341V132.203C39.5186 133.728 38.6785 134.932 37.0908 134.932C35.5031 134.932 34.6568 133.728 34.6568 132.203V125.644C34.6568 124.323 33.9093 123.662 32.7664 123.662C32.5059 123.644 32.2445 123.683 32.001 123.778C31.7576 123.872 31.5382 124.02 31.3585 124.209C31.1789 124.399 31.0436 124.626 30.9623 124.874C30.881 125.122 30.8558 125.385 30.8884 125.644V132.184C30.8884 133.709 30.0482 134.914 28.4606 134.914C26.8729 134.914 26.0266 133.709 26.0266 132.184V125.644C26.0266 124.323 25.2791 123.662 24.1362 123.662C23.8742 123.641 23.6107 123.678 23.3649 123.771C23.1191 123.865 22.8973 124.012 22.7156 124.202C22.5339 124.392 22.3969 124.62 22.3145 124.869C22.2322 125.119 22.2066 125.384 22.2397 125.644V132.184C22.2397 133.709 21.3995 134.914 19.8118 134.914C18.2242 134.914 17.3778 133.709 17.3778 132.184L17.3716 121.655Z" fill="#181716"/>
<path d="M63.9699 128.448C64.0873 130.609 66.4904 130.548 68.0781 130.548H70.5491C72.6804 130.548 73.638 131.122 73.638 132.678C73.638 134.66 71.0248 134.809 68.0781 134.809C62.7406 134.809 58.6262 133.16 58.6262 127.102C58.6262 122.569 61.7151 119.389 66.2495 119.389C71.1916 119.389 73.7492 122.476 73.7492 126.021C73.7492 127.818 73.3909 128.423 71.6179 128.448H63.9699ZM68.7082 125.508C68.7082 124.008 68.0472 122.872 66.336 122.872C64.6247 122.872 63.9699 124.008 63.9699 125.508H68.7082Z" fill="#181716"/>
<path d="M76.2078 121.686C76.2078 120.093 77.3198 119.401 78.6418 119.401C78.8928 119.395 79.1424 119.44 79.3747 119.535C79.607 119.631 79.817 119.773 79.9913 119.954C80.1656 120.134 80.3004 120.349 80.3871 120.585C80.4739 120.82 80.5107 121.071 80.4951 121.322H80.5569C81.2179 120.086 82.0828 119.401 83.4975 119.401C85.0852 119.401 86.228 120.124 86.228 121.741C86.228 125.496 81.0635 122.106 81.0635 126.243V132.184C81.0635 133.709 80.2233 134.913 78.6357 134.913C77.048 134.913 76.2017 133.709 76.2017 132.184L76.2078 121.686Z" fill="#181716"/>
<path d="M95.9578 116.227C95.9578 114.695 96.798 113.491 98.3856 113.491C99.9733 113.491 100.813 114.695 100.813 116.227V132.573C100.813 134.37 99.3432 134.821 97.8729 134.821H94.1663C89.9037 134.821 86.3948 131.943 86.3948 127.503C86.3948 121.982 90.9539 119.642 95.9702 119.401L95.9578 116.227ZM95.9578 123.637C93.4064 123.668 91.4234 124.835 91.4234 127.478C91.4234 129.547 92.5354 130.535 94.5122 130.535H95.9269L95.9578 123.637Z" fill="#181716"/>
<path d="M108.468 128.448C108.585 130.609 110.988 130.548 112.576 130.548H115.047C117.172 130.548 118.105 131.122 118.105 132.678C118.105 134.66 115.492 134.809 112.545 134.809C107.207 134.809 103.093 133.16 103.093 127.102C103.093 122.569 106.182 119.389 110.716 119.389C115.658 119.389 118.216 122.476 118.216 126.021C118.216 127.818 117.858 128.423 116.091 128.448H108.468ZM113.206 125.508C113.206 124.008 112.551 122.872 110.84 122.872C109.129 122.872 108.468 124.008 108.468 125.508H113.206Z" fill="#181716"/>
<path d="M120.502 121.655C120.502 120.093 121.608 119.401 122.93 119.401C124.252 119.401 124.783 120.426 125.03 121.143C125.524 120.613 126.118 120.187 126.777 119.888C127.437 119.589 128.149 119.424 128.873 119.401C131.27 119.401 134 120.723 134 124.341V132.203C134 133.728 133.16 134.932 131.572 134.932C129.985 134.932 129.144 133.728 129.144 132.203V125.644C129.177 125.384 129.152 125.119 129.07 124.869C128.987 124.62 128.85 124.392 128.668 124.202C128.487 124.012 128.265 123.865 128.019 123.771C127.773 123.678 127.51 123.641 127.248 123.662C126.111 123.662 125.395 124.323 125.395 125.644V132.184C125.395 133.709 124.554 134.914 122.961 134.914C121.367 134.914 120.533 133.709 120.533 132.184L120.502 121.655Z" fill="#181716"/>
<path d="M55.4323 120.5C52.85 118.648 49.9465 119.938 49.2546 122.631C49.2479 122.663 49.2304 122.691 49.2051 122.712C49.1798 122.732 49.1482 122.744 49.1156 122.744C49.083 122.744 49.0515 122.732 49.0262 122.712C49.0009 122.691 48.9834 122.663 48.9766 122.631C48.2971 119.938 45.3936 118.648 42.7989 120.5C40.7047 122.001 40.8406 126.219 42.5148 129.22C43.8262 131.69 45.9302 133.647 48.4886 134.778C48.6839 134.861 48.894 134.904 49.1063 134.904C49.3187 134.904 49.5288 134.861 49.7241 134.778C52.2849 133.651 54.3899 131.693 55.6979 129.22C57.3906 126.219 57.5265 122.001 55.4323 120.5Z" fill="#D0282F"/>
<path d="M105.206 70.8689C103.23 64.0784 101.7 57.1657 100.628 50.1754C100.115 46.6006 100.325 42.9594 101.246 39.4673C102.074 36.2994 103.007 32.0075 103.007 28.6975C103.007 15.9022 75.4357 -12.4118 44.1396 22.2999C22.7092 46.0688 20.7385 64.4775 21.6219 81.8981C21.8482 87.0715 23.8062 92.0191 27.1818 95.947C29.821 99.0552 33.2075 101.442 37.0229 102.882L41.1496 99.2755L74.9785 100.616L93.1841 104.142C110.58 100.35 109.209 85.0352 105.206 70.8689Z" fill="#181716"/>
<path d="M71.9823 7.00981C71.9823 7.00981 64.7235 -5.09386 52.9303 2.50798C45.0044 7.615 51.8492 17.6314 51.8492 17.6314L71.9823 7.00981Z" fill="#181716"/>
<path d="M94.5185 17.9587C94.5185 17.9587 107.906 13.0185 109.623 27.9072C110.648 36.7379 99.1209 38.5782 99.1209 38.5782L96.588 16.7422L94.5185 17.9587Z" fill="#181716"/>
<path d="M67.4194 17.8517C69.5141 16.9032 70.7888 15.1999 70.2665 14.0473C69.7442 12.8947 67.6227 12.7293 65.528 13.6778C63.4333 14.6263 62.1586 16.3296 62.6809 17.4822C63.2032 18.6348 65.3247 18.8002 67.4194 17.8517Z" fill="white"/>
<path d="M97.6073 89.5433C97.5579 89.1666 89.7802 92.1925 90.0149 91.8899C91.8065 89.5742 98.6637 79.601 93.4374 68.1581C87.4574 55.0787 55.4632 54.0289 39.2159 64.6319C33.2359 68.084 39.4074 81.0337 35.046 88.2959C32.2536 92.9397 33.971 98.4666 37.0228 102.913C51.0956 107.236 77.8573 107.909 93.1903 104.148C96.6374 99.3435 98.2251 94.0389 97.6073 89.5433Z" fill="white"/>
<path d="M95.4956 29.0233C96.5918 28.3906 96.5484 26.264 95.3986 24.2732C94.2488 22.2825 92.4281 21.1815 91.3318 21.8142C90.2356 22.4468 90.2791 24.5735 91.4289 26.5643C92.5787 28.555 94.3994 29.656 95.4956 29.0233Z" fill="white"/>
<path d="M84.1709 30.5935C83.1701 33.1439 78.9754 33.0637 75.343 31.6125C71.7105 30.1613 68.6031 27.0489 69.6039 24.5046C70.6047 21.9604 76.3376 19.7805 79.97 21.207C83.6025 22.6335 85.1717 28.0431 84.1709 30.5935Z" fill="white"/>
<path d="M77.3693 77.2545C76.9368 73.6234 74.3669 69.8997 69.7213 69.8997C65.0757 69.8997 62.061 74.0433 62.061 77.6991C62.061 80.0396 65.2301 81.2067 69.8757 81.2067C74.5214 81.2067 77.6411 79.5702 77.3693 77.2545Z" fill="#181716"/>
<path d="M84.1167 71.7706C85.1822 70.5681 84.7518 68.4475 83.1555 67.0342C81.5591 65.621 79.4013 65.4501 78.3359 66.6527C77.2705 67.8552 77.7008 69.9758 79.2972 71.389C80.8935 72.8023 83.0513 72.9731 84.1167 71.7706Z" fill="#181716"/>
<path d="M60.139 70.6567C61.7354 69.2434 62.1657 67.1229 61.1003 65.9203C60.0349 64.7178 57.8771 64.8886 56.2807 66.3019C54.6844 67.7152 54.254 69.8357 55.3195 71.0382C56.3849 72.2408 58.5427 72.0699 60.139 70.6567Z" fill="#181716"/>
<path d="M62.6972 57.4313C62.6972 57.4313 44.2136 57.4313 42.5827 70.9553C41.2977 81.5954 52.7882 83.6333 53.5357 89.259C54.2832 94.8848 45.5851 96.5274 44.4113 96.5274C43.2375 96.5274 29.8258 97.7625 24.3215 81.2372C22.3817 75.4324 21.8504 70.1216 23.5184 67.3674C35.7934 50.3729 62.6972 57.4313 62.6972 57.4313Z" fill="#181716"/>
<path d="M89.7061 66.1943C89.7061 66.1943 100.208 74.6669 91.2566 82.5219C85.95 87.1905 76.3746 87.9377 80.0009 93.7055C84.8133 101.363 99.0529 96.3732 100.585 94.7368C103.964 91.118 98.7316 86.1839 98.3548 82.2811C96.9895 68.5471 89.7061 66.1943 89.7061 66.1943Z" fill="#181716"/>
<path d="M55.5497 58.8334C57.8169 60.8589 59.1513 59.8152 53.9311 66.6328C49.4276 72.5117 48.0376 72.0301 45.7704 70.0046C43.5032 67.979 40.5997 63.3969 44.6708 59.3521C48.9952 55.0479 53.2887 56.814 55.5497 58.8334Z" fill="white"/>
<path d="M84.8751 61.4579C82.8118 63.3105 81.5948 62.3533 86.3578 68.5719C90.4597 73.9321 91.7324 73.5122 93.771 71.6596C95.8096 69.807 98.0336 66.7193 94.3332 62.1804C90.8119 57.8577 86.9447 59.6115 84.8751 61.4579Z" fill="white"/>
</svg>
