<svg width="131" height="92" viewBox="0 0 131 92" fill="none" xmlns="http://www.w3.org/2000/svg">
<path d="M88.9874 46.2521C87.6661 41.8781 86.6438 37.4253 85.927 32.9225C85.5841 30.6199 85.7246 28.2744 86.34 26.025C86.8976 23.9844 87.5171 21.2198 87.5171 19.0877C87.5171 10.8457 69.0849 -7.39251 48.1583 14.9667C33.8272 30.2773 32.518 42.1351 33.1128 53.3565C33.2621 56.6893 34.5713 59.8768 36.8297 62.406C38.5926 64.4062 40.8533 65.9432 43.4006 66.8731L46.1635 64.55L68.7793 65.4132L80.9504 67.6845C92.5763 65.2422 91.6471 55.3772 88.9874 46.2521Z" fill="#181716"/>
<path d="M66.7763 5.11786C66.7763 5.11786 61.9111 -2.67864 54.0394 2.21804C48.7365 5.50768 53.3166 11.9597 53.3166 11.9597L66.7763 5.11786Z" fill="#181716"/>
<path d="M81.859 12.1703C81.859 12.1703 90.8087 8.9881 91.9568 18.5786C92.6424 24.2668 84.9358 25.4522 84.9358 25.4522L83.2467 11.3867L81.859 12.1703Z" fill="#181716"/>
<path d="M63.7239 12.0994C65.1243 11.4884 65.9764 10.3912 65.6273 9.64882C65.2781 8.9064 63.8598 8.79984 62.4594 9.41082C61.0591 10.0218 60.2069 11.1189 60.5561 11.8614C60.9052 12.6038 62.3235 12.7103 63.7239 12.0994Z" fill="white"/>
<path d="M83.9034 58.281C83.8703 58.0383 78.6707 59.9875 78.8235 59.7925C80.0253 58.3009 84.6055 51.8767 81.1156 44.5058C77.1178 36.061 55.7162 35.3847 44.8667 42.2146C40.8689 44.4382 44.9947 52.7797 42.079 57.4576C40.2122 60.4489 41.3603 64.009 43.4006 66.873C52.8087 69.6575 70.6998 70.0911 80.9504 67.6686C83.2591 64.5938 84.3081 61.1768 83.9034 58.281Z" fill="white"/>
<path d="M82.4934 19.2979C83.2262 18.8904 83.1972 17.5205 82.4285 16.2382C81.6598 14.9559 80.4426 14.2467 79.7098 14.6542C78.9769 15.0617 79.0059 16.4316 79.7746 17.7139C80.5433 18.9963 81.7605 19.7054 82.4934 19.2979Z" fill="white"/>
<path d="M74.9248 20.3092C74.2557 21.9521 71.4515 21.9004 69.023 20.9656C66.5946 20.0308 64.5172 18.026 65.1863 16.3871C65.8553 14.7483 69.688 13.3322 72.1164 14.263C74.5448 15.1938 75.5939 18.6664 74.9248 20.3092Z" fill="white"/>
<path d="M70.3735 50.3655C70.0885 48.0265 68.3704 45.6279 65.2647 45.6279C62.1589 45.6279 60.1435 48.297 60.1435 50.6519C60.1435 52.1595 62.258 52.9113 65.3679 52.9113C68.4778 52.9113 70.5593 51.8572 70.3735 50.3655Z" fill="#181716"/>
<path d="M74.8915 46.8316C75.6037 46.057 75.316 44.6911 74.2488 43.7807C73.1816 42.8704 71.7391 42.7603 71.0268 43.5349C70.3145 44.3096 70.6022 45.6755 71.6694 46.5858C72.7366 47.4962 74.1792 47.6062 74.8915 46.8316Z" fill="#181716"/>
<path d="M58.86 46.1128C59.9272 45.2025 60.2149 43.8366 59.5027 43.0619C58.7904 42.2873 57.3478 42.3974 56.2806 43.3077C55.2134 44.2181 54.9257 45.584 55.638 46.3586C56.3503 47.1332 57.7928 47.0232 58.86 46.1128Z" fill="#181716"/>
<path d="M60.5689 37.5967C60.5689 37.5967 48.212 37.5967 47.1217 46.308C46.2627 53.1618 53.9444 54.4745 54.4442 58.0983C54.9439 61.722 49.1082 62.7602 48.3442 62.7602C47.5801 62.7602 38.5933 63.5558 34.9135 52.9112C33.6166 49.1721 33.2615 45.7512 34.3766 43.9771C42.5829 33.05 60.5689 37.5967 60.5689 37.5967Z" fill="#181716"/>
<path d="M78.6252 43.2412C78.6252 43.2412 85.6461 48.6988 79.6618 53.7585C76.1141 56.7657 69.7126 57.2471 72.137 60.9623C75.3542 65.8948 84.8697 62.6807 85.8981 61.6266C88.1572 59.2956 84.6591 56.1174 84.4071 53.6034C83.5068 44.7568 78.6252 43.2412 78.6252 43.2412Z" fill="#181716"/>
<path d="M55.7905 38.4994C57.3062 39.8041 58.1983 39.1318 54.7085 43.5233C51.6977 47.3102 50.7685 46.9999 49.2528 45.6952C47.7371 44.3905 45.8042 41.439 48.5176 38.8335C51.4086 36.061 54.279 37.1986 55.7905 38.4994Z" fill="white"/>
<path d="M75.3956 40.19C74.0161 41.3833 73.2025 40.7668 76.3868 44.7724C79.1291 48.2252 79.9798 47.9547 81.3427 46.7613C82.7056 45.568 84.1924 43.5791 81.7186 40.6554C79.381 37.8709 76.7791 39.0006 75.3956 40.19Z" fill="white"/>
<path d="M7.45258 91.4892C3.01969 91.4892 0 88.4578 0 84.1264C0 79.795 3.01969 76.7637 7.45258 76.7637C11.8855 76.7637 14.9052 79.795 14.9052 84.1264C14.9052 88.4578 11.97 91.4892 7.45258 91.4892ZM4.92813 84.1264C4.92813 85.6829 5.53206 87.4668 7.45258 87.4668C9.3731 87.4668 9.97704 85.6829 9.97704 84.1264C9.97704 82.5699 9.3731 80.7861 7.45258 80.7861C5.53206 80.7861 4.92813 82.5699 4.92813 84.1264Z" fill="#181716"/>
<path d="M16.9827 78.8854C16.9827 77.4164 18.0698 76.7635 19.3622 76.7635C20.6547 76.7635 21.174 77.7253 21.4156 78.4074C22.5027 77.4164 23.5838 76.7635 25.1117 76.7635C26.6817 76.7706 28.1863 77.3713 29.303 78.4365C30.4569 77.35 32.0093 76.7485 33.6212 76.7635C35.9645 76.7635 38.6339 78.011 38.6339 81.4271V88.8248C38.6339 90.2706 37.8125 91.4015 36.2604 91.4015C34.7083 91.4015 33.8809 90.2706 33.8809 88.8248V82.6513C33.8809 82.1782 33.6862 81.7245 33.3396 81.39C32.993 81.0554 32.523 80.8675 32.0328 80.8675C31.5427 80.8675 31.0727 81.0554 30.7261 81.39C30.3795 81.7245 30.1848 82.1782 30.1848 82.6513V88.8248C30.1848 90.2706 29.3634 91.4015 27.8113 91.4015C26.2592 91.4015 25.4318 90.2706 25.4318 88.8248V82.6513C25.4641 82.406 25.4393 82.1567 25.3591 81.9218C25.2789 81.6869 25.1454 81.4722 24.9683 81.2935C24.7912 81.1147 24.575 80.9764 24.3355 80.8886C24.096 80.8008 23.8391 80.7657 23.5838 80.7859C23.3289 80.7666 23.0727 80.8024 22.8339 80.8906C22.5952 80.9788 22.3797 81.1173 22.2033 81.2959C22.0269 81.4746 21.894 81.6889 21.8141 81.9234C21.7343 82.1578 21.7096 82.4065 21.7418 82.6513V88.8248C21.7418 90.2706 20.9204 91.4015 19.3683 91.4015C17.8162 91.4015 16.9888 90.2706 16.9888 88.8248L16.9827 78.8854Z" fill="#181716"/>
<path d="M62.5377 85.3157C62.6525 87.356 65.0018 87.2977 66.5539 87.2977H68.9696C71.0532 87.2977 71.9893 87.834 71.9893 89.3089C71.9893 91.1744 69.4347 91.3201 66.5539 91.3201C61.3359 91.3201 57.3137 89.7636 57.3137 84.039C57.3137 79.7659 60.3333 76.7637 64.7662 76.7637C69.5977 76.7637 72.098 79.6785 72.098 83.0188C72.098 84.721 71.7478 85.2865 70.0145 85.3157H62.5377ZM67.1699 82.5408C67.1699 81.1242 66.5237 80.0457 64.8508 80.0457C63.1779 80.0457 62.5377 81.1242 62.5377 82.5408H67.1699Z" fill="#181716"/>
<path d="M74.5016 78.9144C74.5016 77.4162 75.5887 76.7633 76.8812 76.7633C77.1265 76.7572 77.3705 76.8004 77.5976 76.8902C77.8247 76.98 78.03 77.1144 78.2004 77.2849C78.3708 77.4554 78.5026 77.6583 78.5874 77.8806C78.6722 78.1029 78.7081 78.3398 78.693 78.5763H78.7534C79.3996 77.4103 80.2451 76.7633 81.6281 76.7633C83.1802 76.7633 84.2975 77.4453 84.2975 78.9727C84.2975 82.5112 79.2486 79.3108 79.2486 83.2166V88.8246C79.2486 90.2704 78.4272 91.4013 76.8751 91.4013C75.323 91.4013 74.4956 90.2704 74.4956 88.8246L74.5016 78.9144Z" fill="#181716"/>
<path d="M93.8095 73.7612C93.8095 72.3155 94.6309 71.1846 96.183 71.1846C97.7351 71.1846 98.5565 72.3155 98.5565 73.7612V89.1921C98.5565 90.8944 97.1191 91.3199 95.6817 91.3199H92.0581C87.8909 91.3199 84.4606 88.5975 84.4606 84.406C84.4606 79.2002 88.9176 76.9908 93.8216 76.7635L93.8095 73.7612ZM93.8095 80.7567C91.3153 80.7859 89.3766 81.8877 89.3766 84.3769C89.3766 86.3356 90.4637 87.2917 92.3963 87.2917H93.7793L93.8095 80.7567Z" fill="#181716"/>
<path d="M106.039 85.3157C106.154 87.356 108.503 87.2977 110.055 87.2977H112.471C114.549 87.2977 115.461 87.834 115.461 89.3089C115.461 91.1744 112.906 91.3201 110.025 91.3201C104.807 91.3201 100.785 89.7636 100.785 84.039C100.785 79.7659 103.805 76.7637 108.238 76.7637C113.069 76.7637 115.569 79.6785 115.569 83.0188C115.569 84.721 115.219 85.2865 113.492 85.3157H106.039ZM110.671 82.5408C110.671 81.1242 110.031 80.0457 108.358 80.0457C106.685 80.0457 106.039 81.1242 106.039 82.5408H110.671Z" fill="#181716"/>
<path d="M117.804 78.8856C117.804 77.4166 118.885 76.7637 120.177 76.7637C121.47 76.7637 121.989 77.7256 122.231 78.4076C122.714 77.9081 123.294 77.5057 123.939 77.2236C124.584 76.9414 125.28 76.7851 125.987 76.7637C128.331 76.7637 131 78.0112 131 81.4273V88.8251C131 90.2708 130.179 91.4017 128.627 91.4017C127.074 91.4017 126.253 90.2708 126.253 88.8251V82.6515C126.253 82.1784 126.058 81.7247 125.712 81.3902C125.365 81.0556 124.895 80.8677 124.405 80.8677C123.915 80.8677 123.445 81.0556 123.098 81.3902C122.752 81.7247 122.557 82.1784 122.557 82.6515V88.8251C122.557 90.2708 121.736 91.4017 120.177 91.4017C118.619 91.4017 117.804 90.2708 117.804 88.8251V78.8856Z" fill="#181716"/>
<path d="M54.1913 77.7952C51.6668 76.0463 48.8283 77.2705 48.1519 79.8064C48.1453 79.8365 48.1282 79.8634 48.1035 79.8828C48.0787 79.9021 48.0479 79.9127 48.016 79.9127C47.9842 79.9127 47.9533 79.9021 47.9286 79.8828C47.9038 79.8634 47.8867 79.8365 47.8801 79.8064C47.2158 77.2705 44.3773 76.0463 41.8408 77.7952C39.7934 79.2118 39.9263 83.1934 41.563 86.0266C42.8462 88.3572 44.9027 90.2048 47.403 91.2732C47.7901 91.4261 48.2239 91.4261 48.6109 91.2732C51.1133 90.2078 53.1708 88.3595 54.451 86.0266C56.1058 83.1934 56.2386 79.2118 54.1913 77.7952Z" fill="#D0282F"/>
</svg>
