<svg width="39" height="30" viewBox="0 0 39 30" fill="none" xmlns="http://www.w3.org/2000/svg">
<path d="M7.09699 29.9337V27.9426C7.09699 27.1793 6.62832 26.6815 5.82488 26.6815C5.42317 26.6815 4.98797 26.8142 4.68669 27.2457C4.45235 26.8806 4.11759 26.6815 3.61544 26.6815C3.28068 26.6815 2.94591 26.7811 2.6781 27.1461V26.7479H1.9751V29.9337H2.6781V28.1749C2.6781 27.6107 2.97939 27.3452 3.44806 27.3452C3.91673 27.3452 4.15106 27.6439 4.15106 28.1749V29.9337H4.85407V28.1749C4.85407 27.6107 5.18883 27.3452 5.62402 27.3452C6.09269 27.3452 6.32703 27.6439 6.32703 28.1749V29.9337H7.09699ZM17.5081 26.7479H16.3699V25.7855H15.6669V26.7479H15.0309V27.3784H15.6669V28.8386C15.6669 29.5687 15.9682 30.0001 16.7717 30.0001C17.073 30.0001 17.4077 29.9005 17.6421 29.7678L17.4412 29.1704C17.2403 29.3032 17.006 29.3364 16.8386 29.3364C16.5039 29.3364 16.3699 29.1373 16.3699 28.8054V27.3784H17.5081V26.7479ZM23.4669 26.6815C23.0652 26.6815 22.7974 26.8806 22.63 27.1461V26.7479H21.927V29.9337H22.63V28.1417C22.63 27.6107 22.8644 27.312 23.2996 27.312C23.4335 27.312 23.6008 27.3452 23.7348 27.3784L23.9356 26.7147C23.8017 26.6815 23.6008 26.6815 23.4669 26.6815ZM14.4618 27.0134C14.127 26.7811 13.6584 26.6815 13.1562 26.6815C12.3528 26.6815 11.8172 27.0797 11.8172 27.7103C11.8172 28.2412 12.2189 28.5399 12.9219 28.6395L13.2566 28.6727C13.6249 28.739 13.8257 28.8386 13.8257 29.0045C13.8257 29.2368 13.5579 29.4027 13.0893 29.4027C12.6206 29.4027 12.2523 29.2368 12.018 29.0709L11.6833 29.6019C12.0515 29.8673 12.5536 30.0001 13.0558 30.0001C13.9931 30.0001 14.5287 29.5687 14.5287 28.9713C14.5287 28.4072 14.0936 28.1085 13.424 28.0089L13.0893 27.9758C12.788 27.9426 12.5536 27.8762 12.5536 27.6771C12.5536 27.4448 12.788 27.312 13.1562 27.312C13.5579 27.312 13.9596 27.478 14.1605 27.5775L14.4618 27.0134ZM33.1416 26.6815C32.7399 26.6815 32.4721 26.8806 32.3047 27.1461V26.7479H31.6017V29.9337H32.3047V28.1417C32.3047 27.6107 32.539 27.312 32.9742 27.312C33.1081 27.312 33.2755 27.3452 33.4094 27.3784L33.6103 26.7147C33.4764 26.6815 33.2755 26.6815 33.1416 26.6815ZM24.1699 28.3408C24.1699 29.3032 24.8395 30.0001 25.8772 30.0001C26.3459 30.0001 26.6807 29.9005 27.0154 29.635L26.6807 29.0709C26.4129 29.27 26.1451 29.3696 25.8438 29.3696C25.2747 29.3696 24.873 28.9713 24.873 28.3408C24.873 27.7435 25.2747 27.3452 25.8438 27.312C26.1451 27.312 26.4129 27.4116 26.6807 27.6107L27.0154 27.0465C26.6807 26.7811 26.3459 26.6815 25.8772 26.6815C24.8395 26.6815 24.1699 27.3784 24.1699 28.3408ZM30.6644 28.3408V26.7479H29.9614V27.1461C29.727 26.8474 29.3923 26.6815 28.9571 26.6815C28.0532 26.6815 27.3502 27.3784 27.3502 28.3408C27.3502 29.3032 28.0532 30.0001 28.9571 30.0001C29.4257 30.0001 29.7605 29.8342 29.9614 29.5355V29.9337H30.6644V28.3408ZM28.0867 28.3408C28.0867 27.7766 28.4549 27.312 29.0575 27.312C29.6266 27.312 30.0283 27.7435 30.0283 28.3408C30.0283 28.905 29.6266 29.3696 29.0575 29.3696C28.4549 29.3364 28.0867 28.905 28.0867 28.3408ZM19.6841 26.6815C18.7468 26.6815 18.0772 27.3452 18.0772 28.3408C18.0772 29.3364 18.7468 30.0001 19.7176 30.0001C20.1863 30.0001 20.6549 29.8673 21.0232 29.5687L20.6884 29.0709C20.4206 29.27 20.0858 29.4027 19.7511 29.4027C19.3159 29.4027 18.8807 29.2036 18.7802 28.6395H21.1571V28.374C21.1905 27.3452 20.588 26.6815 19.6841 26.6815ZM19.6841 27.2788C20.1193 27.2788 20.4206 27.5443 20.4875 28.0421H18.8137C18.8807 27.6107 19.182 27.2788 19.6841 27.2788ZM37.1253 28.3408V25.4868H36.4223V27.1461C36.188 26.8474 35.8532 26.6815 35.418 26.6815C34.5142 26.6815 33.8111 27.3784 33.8111 28.3408C33.8111 29.3032 34.5142 30.0001 35.418 30.0001C35.8867 30.0001 36.2215 29.8342 36.4223 29.5355V29.9337H37.1253V28.3408ZM34.5476 28.3408C34.5476 27.7766 34.9159 27.312 35.5184 27.312C36.0875 27.312 36.4893 27.7435 36.4893 28.3408C36.4893 28.905 36.0875 29.3696 35.5184 29.3696C34.9159 29.3364 34.5476 28.905 34.5476 28.3408ZM11.0472 28.3408V26.7479H10.3442V27.1461C10.1099 26.8474 9.7751 26.6815 9.3399 26.6815C8.43604 26.6815 7.73304 27.3784 7.73304 28.3408C7.73304 29.3032 8.43604 30.0001 9.3399 30.0001C9.80857 30.0001 10.1433 29.8342 10.3442 29.5355V29.9337H11.0472V28.3408ZM8.43604 28.3408C8.43604 27.7766 8.80428 27.312 9.40686 27.312C9.97596 27.312 10.3777 27.7435 10.3777 28.3408C10.3777 28.905 9.97596 29.3696 9.40686 29.3696C8.80428 29.3364 8.43604 28.905 8.43604 28.3408Z" fill="black"/>
<path d="M24.7725 2.55518H14.2274V21.3383H24.7725V2.55518Z" fill="#FF5F00"/>
<path d="M14.897 11.9469C14.897 8.13053 16.7047 4.74557 19.4833 2.55531C17.4412 0.962389 14.8635 0 12.0515 0C5.3897 0 0 5.34292 0 11.9469C0 18.5509 5.3897 23.8938 12.0515 23.8938C14.8635 23.8938 17.4412 22.9314 19.4833 21.3385C16.7047 19.1814 14.897 15.7633 14.897 11.9469Z" fill="#EB001B"/>
<path d="M39 11.9469C39 18.5509 33.6103 23.8938 26.9485 23.8938C24.1365 23.8938 21.5588 22.9314 19.5167 21.3385C22.3287 19.1482 24.103 15.7633 24.103 11.9469C24.103 8.13053 22.2953 4.74557 19.5167 2.55531C21.5588 0.962389 24.1365 0 26.9485 0C33.6103 0 39 5.3761 39 11.9469Z" fill="#F79E1B"/>
</svg>
