<svg width="101" height="27" viewBox="0 0 101 27" fill="none" xmlns="http://www.w3.org/2000/svg">
<path d="M68.1578 9.10373e-05H60.3042C60.0418 -0.00329719 59.7869 0.0879909 59.5859 0.257327C59.385 0.426663 59.2513 0.662778 59.2094 0.922664L56.0343 21.1314C56.0196 21.2252 56.0253 21.3211 56.0509 21.4125C56.0766 21.5039 56.1216 21.5887 56.183 21.661C56.2443 21.7333 56.3205 21.7915 56.4063 21.8315C56.4922 21.8715 56.5856 21.8925 56.6803 21.8929H60.6947C60.8836 21.9002 61.0685 21.8368 61.2135 21.715C61.3585 21.5932 61.4532 21.4218 61.4793 21.2339L62.3807 15.5044C62.4227 15.2446 62.5563 15.0084 62.7573 14.8391C62.9582 14.6698 63.2131 14.5785 63.4756 14.5819H65.9608C71.1358 14.5819 74.121 12.0668 74.902 7.0878C75.2669 4.89119 74.902 3.19981 73.8984 2.00266C72.7671 0.695682 70.8073 9.10373e-05 68.1578 9.10373e-05ZM69.0665 7.38068C68.6359 10.2106 66.4827 10.2106 64.3989 10.2106H63.2164L64.0449 4.9278C64.0739 4.77662 64.1547 4.64039 64.2734 4.54275C64.392 4.44511 64.541 4.39224 64.6945 4.3933H65.2346C66.6542 4.3933 67.9936 4.3933 68.6833 5.20238C69.0957 5.66733 69.2234 6.38854 69.0665 7.38068Z" fill="#009ADE"/>
<path d="M12.1278 0.000976562H4.27056C4.01126 0.00196105 3.76074 0.0952316 3.56359 0.26418C3.36643 0.433128 3.23545 0.666787 3.19397 0.92355L0.00799866 21.1323C-0.00682398 21.2267 -0.000996802 21.3232 0.0250761 21.4152C0.0511489 21.5071 0.0968434 21.5922 0.15899 21.6647C0.221137 21.7371 0.298249 21.7951 0.384978 21.8347C0.471707 21.8743 0.565977 21.8944 0.66125 21.8938H4.41288C4.67584 21.897 4.93118 21.8052 5.13221 21.6352C5.33325 21.4651 5.46654 21.2281 5.50772 20.9675L6.36534 15.5163C6.40682 15.2596 6.5378 15.0259 6.73496 14.8569C6.93211 14.688 7.18264 14.5947 7.44193 14.5937H9.9272C15.1021 14.5937 18.091 12.0786 18.8684 7.09966C19.2333 4.90306 18.8684 3.21168 17.8684 2.01453C16.7371 0.696567 14.7554 0.000976562 12.1278 0.000976562ZM13.0329 7.38156C12.6059 10.2115 10.4491 10.2115 8.36889 10.2115H7.18282L8.01489 4.92869C8.0431 4.7778 8.12322 4.64164 8.24127 4.54396C8.35932 4.44627 8.50781 4.39327 8.66084 4.39418H9.20461C10.6206 4.39418 11.9599 4.39418 12.6533 5.20326C13.0657 5.66821 13.1898 6.38943 13.0329 7.38156Z" fill="#002F87"/>
<path d="M35.6084 7.2892H31.8458C31.6896 7.28916 31.5385 7.34527 31.42 7.44736C31.3015 7.54946 31.2234 7.69077 31.1998 7.84568L31.0283 8.90005L30.7656 8.53395C29.9481 7.34412 28.1343 6.94873 26.3205 6.94873C22.1638 6.94873 18.6129 10.1082 17.9268 14.5417C17.5619 16.7383 18.0764 18.8616 19.3282 20.337C20.4741 21.6916 22.1127 22.2554 24.0725 22.2554C25.0408 22.263 26.0008 22.0747 26.8949 21.7016C27.7891 21.3286 28.5991 20.7786 29.2766 20.0844L29.1087 21.1315C29.094 21.2253 29.0996 21.3212 29.1253 21.4126C29.1509 21.504 29.196 21.5887 29.2573 21.661C29.3187 21.7334 29.3949 21.7915 29.4807 21.8316C29.5666 21.8716 29.66 21.8925 29.7547 21.893H33.145C33.408 21.8962 33.6633 21.8044 33.8643 21.6343C34.0654 21.4643 34.1987 21.2273 34.2398 20.9667L36.2543 8.05435C36.2696 7.96028 36.2644 7.86399 36.239 7.77214C36.2137 7.68028 36.1687 7.59504 36.1073 7.5223C36.0459 7.44956 35.9695 7.39105 35.8833 7.35081C35.7972 7.31057 35.7034 7.28955 35.6084 7.2892ZM30.3641 14.6442C30.2181 15.6613 29.7055 16.5896 28.9235 17.2534C28.1414 17.9172 27.144 18.2705 26.1198 18.2466C25.6483 18.2726 25.1769 18.1928 24.74 18.0129C24.3031 17.833 23.9118 17.5577 23.5944 17.2069C23.31 16.8374 23.1094 16.4101 23.0067 15.9548C22.9039 15.4996 22.9015 15.0273 22.9995 14.5709C23.143 13.5555 23.6498 12.627 24.4254 11.9588C25.2009 11.2906 26.1923 10.9282 27.2146 10.9392C27.6829 10.9138 28.151 10.9929 28.5852 11.1708C29.0194 11.3486 29.4088 11.6209 29.7255 11.968C30.0214 12.3396 30.2321 12.772 30.3425 13.2346C30.4528 13.6971 30.4602 14.1784 30.3641 14.6442Z" fill="#002F87"/>
<path d="M91.642 7.2892H87.8794C87.7224 7.28752 87.5701 7.34296 87.4506 7.44526C87.3312 7.54757 87.2528 7.68982 87.2298 7.84568L87.062 8.90005L86.7992 8.53395C85.9854 7.34412 84.168 6.94873 82.3578 6.94873C78.2011 6.94873 74.6502 10.1082 73.9641 14.5417C73.5991 16.7383 74.1137 18.8616 75.3618 20.337C76.5114 21.6916 78.15 22.2554 80.1061 22.2554C81.0741 22.2654 82.0341 22.0796 82.9288 21.7091C83.8236 21.3386 84.6348 20.791 85.3139 20.0991L85.146 21.1461C85.1306 21.24 85.1358 21.3361 85.1612 21.4278C85.1867 21.5195 85.2317 21.6045 85.2931 21.677C85.3546 21.7494 85.4311 21.8076 85.5172 21.8474C85.6034 21.8873 85.6971 21.9078 85.792 21.9076H89.1786C89.4416 21.9108 89.6969 21.819 89.898 21.649C90.099 21.4789 90.2323 21.2419 90.2735 20.9814L92.288 8.05435C92.3033 7.96028 92.2981 7.86399 92.2727 7.77214C92.2473 7.68028 92.2024 7.59504 92.1409 7.5223C92.0795 7.44956 92.0031 7.39105 91.917 7.35081C91.8309 7.31057 91.737 7.28955 91.642 7.2892ZM86.3978 14.6442C86.2509 15.661 85.7382 16.5888 84.9563 17.2524C84.1744 17.9161 83.1774 18.2697 82.1535 18.2466C81.6814 18.2726 81.2095 18.1928 80.772 18.013C80.3345 17.8331 79.9425 17.5577 79.6244 17.2069C79.3398 16.8347 79.1398 16.4046 79.0383 15.9468C78.9368 15.4889 78.9363 15.0144 79.0368 14.5563C79.1803 13.5408 79.6871 12.6124 80.4627 11.9442C81.2382 11.2759 82.2296 10.9135 83.2519 10.9246C83.7226 10.8994 84.193 10.9799 84.6287 11.1605C85.0644 11.341 85.4543 11.6169 85.7701 11.968C86.0632 12.341 86.2714 12.7739 86.3798 13.2362C86.4882 13.6986 86.4944 14.1792 86.3978 14.6442Z" fill="#009ADE"/>
<path d="M55.6438 7.28906H51.863C51.6846 7.28898 51.5089 7.33264 51.3512 7.41622C51.1934 7.49981 51.0585 7.62079 50.958 7.76865L45.7429 15.4751L43.5532 8.07252C43.4858 7.84635 43.3475 7.648 43.1588 7.50688C42.9701 7.36577 42.7412 7.28938 42.5058 7.28906H38.7724C38.6681 7.28929 38.5654 7.31445 38.4727 7.36243C38.38 7.41042 38.3 7.47986 38.2394 7.56502C38.1787 7.65017 38.1392 7.74858 38.124 7.85212C38.1088 7.95565 38.1184 8.06132 38.152 8.16038L42.3161 20.4174L38.4002 25.9602C38.3308 26.0586 38.2896 26.1742 38.2811 26.2945C38.2726 26.4147 38.2972 26.535 38.3521 26.6422C38.4071 26.7494 38.4903 26.8395 38.5927 26.9026C38.6951 26.9656 38.8128 26.9993 38.933 26.9999H42.7066C42.8831 26.9996 43.0569 26.9565 43.2132 26.8743C43.3695 26.7921 43.5037 26.6731 43.6043 26.5276L56.1767 8.32147C56.2454 8.22342 56.2861 8.10832 56.2942 7.98871C56.3022 7.8691 56.2775 7.74955 56.2225 7.64309C56.1676 7.53662 56.0846 7.44732 55.9825 7.3849C55.8805 7.32248 55.7634 7.28933 55.6438 7.28906Z" fill="#002F87"/>
<path d="M96.0761 0.556961L92.85 21.1318C92.8353 21.2256 92.8409 21.3215 92.8666 21.4129C92.8922 21.5043 92.9373 21.5891 92.9986 21.6614C93.0599 21.7337 93.1362 21.7919 93.222 21.8319C93.3078 21.8719 93.4013 21.8929 93.4959 21.8933H96.7403C96.9995 21.8913 97.2496 21.7971 97.446 21.6275C97.6425 21.4579 97.7726 21.2239 97.8132 20.9671L100.992 0.758316C101.006 0.666496 101.001 0.572623 100.977 0.482931C100.953 0.39324 100.909 0.309783 100.85 0.238105C100.791 0.166427 100.718 0.108169 100.635 0.0672008C100.551 0.0262323 100.46 0.00349126 100.368 0.000488281L96.7184 0.000488281C96.5626 0.00056808 96.412 0.0568086 96.2941 0.158957C96.1762 0.261105 96.0988 0.402357 96.0761 0.556961Z" fill="#009ADE"/>
</svg>
