<svg width="33" height="32" viewBox="0 0 33 32" fill="none" xmlns="http://www.w3.org/2000/svg">
<path d="M13.7417 0C6.16865 0 0 5.98172 0 13.3253C0 20.6689 6.16865 26.6506 13.7417 26.6506C17.0349 26.6506 20.0593 25.5166 22.4296 23.6342L30.6343 31.5903C30.761 31.7182 30.9126 31.8203 31.0804 31.8906C31.2483 31.961 31.4289 31.9981 31.6117 31.9999C31.7945 32.0017 31.9759 31.9681 32.1451 31.9011C32.3144 31.8341 32.4682 31.735 32.5975 31.6097C32.7268 31.4843 32.8289 31.3352 32.898 31.1711C32.9671 31.0069 33.0018 30.8311 32.9999 30.6538C32.9981 30.4765 32.9597 30.3014 32.8872 30.1386C32.8147 29.9759 32.7094 29.8288 32.5775 29.706L24.3727 21.7499C26.314 19.4514 27.4834 16.5187 27.4834 13.3253C27.4834 5.98172 21.3148 0 13.7417 0ZM13.7417 2.66506C19.8294 2.66506 24.7351 7.42202 24.7351 13.3253C24.7351 19.2286 19.8294 23.9855 13.7417 23.9855C7.65396 23.9855 2.74834 19.2286 2.74834 13.3253C2.74834 7.42202 7.65396 2.66506 13.7417 2.66506Z" fill="black"/>
</svg>
